<?xml version="1.0" encoding="UTF-8" standalone="no"?>
<svg
   xmlns:dc="http://purl.org/dc/elements/1.1/"
   xmlns:cc="http://creativecommons.org/ns#"
   xmlns:rdf="http://www.w3.org/1999/02/22-rdf-syntax-ns#"
   xmlns:svg="http://www.w3.org/2000/svg"
   xmlns="http://www.w3.org/2000/svg"
   xmlns:sodipodi="http://sodipodi.sourceforge.net/DTD/sodipodi-0.dtd"
   xmlns:inkscape="http://www.inkscape.org/namespaces/inkscape"
   width="1200"
   height="630"
   viewBox="0 0 317.5 166.6875"
   version="1.1"
   id="svg8"
   inkscape:export-filename="/home/taranti/source/mine/alan-taranti/me.png"
   inkscape:export-xdpi="144"
   inkscape:export-ydpi="144"
   inkscape:version="1.0.2 (e86c870879, 2021-01-15, custom)"
   sodipodi:docname="me_landscape.svg">
  <defs
     id="defs2" />
  <sodipodi:namedview
     id="base"
     pagecolor="#ffffff"
     bordercolor="#666666"
     borderopacity="1.0"
     inkscape:pageopacity="0.0"
     inkscape:pageshadow="2"
     inkscape:zoom="0.49497475"
     inkscape:cx="146.50343"
     inkscape:cy="559.79725"
     inkscape:document-units="mm"
     inkscape:current-layer="layer1"
     inkscape:document-rotation="0"
     showgrid="false"
     inkscape:window-width="1920"
     inkscape:window-height="1015"
     inkscape:window-x="0"
     inkscape:window-y="0"
     inkscape:window-maximized="1"
     units="px" />
  <metadata
     id="metadata5">
    <rdf:RDF>
      <cc:Work
         rdf:about="">
        <dc:format>image/svg+xml</dc:format>
        <dc:type
           rdf:resource="http://purl.org/dc/dcmitype/StillImage" />
        <dc:title></dc:title>
      </cc:Work>
    </rdf:RDF>
  </metadata>
  <g
     inkscape:label="Layer 1"
     inkscape:groupmode="layer"
     id="layer1">
    <path
       style="fill:#6c2613;fill-opacity:1;stroke:#000000;stroke-width:0.377976;stroke-opacity:1"
       d=""
       id="path1383" />
    <g
       transform="matrix(1.3582001,0,0,1.3400588,28.03151,-50.50924)"
       id="g1740"
       inkscape:export-xdpi="144"
       inkscape:export-ydpi="144">
      <path
         sodipodi:nodetypes="cssssssccsssssssc"
         id="path270"
         d="m 62.178968,105.99275 c 0,0 1.962062,19.57016 2.488458,22.0702 0.526399,2.50002 2.732618,12.73035 7.885808,18.18519 5.153189,5.4548 11.551734,16.00919 20.962778,15.6038 9.411048,-0.40542 23.582468,-6.54755 27.635028,-18.40221 4.05255,-11.85466 5.89093,-9.05836 7.68571,-19.75699 1.79477,-10.69864 1.65868,-22.36096 1.00507,-24.290378 -0.65361,-1.92942 -0.85912,-2.124417 -0.85912,-2.124417 l -0.72302,4.794955 c 0,0 -0.61855,5.20872 -1.98887,6.5135 -1.37032,1.30479 -1.72761,2.68756 -8.89854,2.36989 -7.17092,-0.31768 -15.07876,1.37875 -18.114858,-7.0479 -3.036102,-8.426646 -3.578446,-9.150879 -5.955791,-7.525207 -2.377345,1.625675 -2.948286,8.196467 -4.710723,10.296347 -1.762438,2.09987 -0.917899,2.87135 -12.131783,3.34628 -11.213886,0.47493 -13.77554,-3.12751 -14.060277,-3.70677 -0.284739,-0.57926 -0.21987,-0.32629 -0.21987,-0.32629 z"
         style="fill:none;stroke:#000000;stroke-width:0.26739px;stroke-linecap:butt;stroke-linejoin:miter;stroke-opacity:1" />
      <path
         sodipodi:nodetypes="cssssssssssscccccccccccccccccccccccccccccc"
         id="path272"
         d="m 128.9827,97.277945 c 0,0 -0.0282,-1.380114 1.35743,-0.783033 1.38559,0.597078 2.56093,1.329176 2.96671,1.153203 0.40578,-0.175972 0.62714,0.129407 0.76664,-0.965697 0.1395,-1.095102 -0.5325,-1.665904 -1.20086,-2.352243 -0.66833,-0.686339 -1.41539,-1.40824 -2.99185,-1.857035 -1.57646,-0.448796 -16.72318,-4.186406 -20.41442,-3.030516 -3.69124,1.155888 -7.74388,0.897925 -10.716703,1.358441 -2.972826,0.46052 -6.993799,-0.222982 -12.056844,-1.378466 -5.063046,-1.155484 -25.854436,-1.138877 -28.182396,0.534356 -2.327964,1.673234 -1.388158,2.542224 -0.513332,4.116555 0.874825,1.574329 1.090799,2.565208 2.055753,5.315122 0.964955,2.749918 2.12614,6.604118 2.12614,6.604118 v 0 l 1.083933,1.32719 2.707011,1.57137 3.659674,0.90542 5.968912,0.2953 5.891858,-0.39708 4.027866,-0.51102 1.824257,-0.82477 1.916313,-2.53429 1.129675,-3.40679 0.887085,-2.81991 1.162664,-2.353261 1.113394,-1.077663 1.141229,-0.534227 0.84944,0.194091 0.910633,1.069483 1.501849,3.340317 1.756755,4.85843 1.438034,2.27199 1.92774,1.67762 1.42731,0.801 3.72119,0.93302 6.62651,0.14674 6.76562,0.0963 2.94466,-0.84347 2.08025,-2.01639 0.99603,-2.47408 0.66029,-3.80023 z"
         style="fill:none;stroke:#000000;stroke-width:0.26739px;stroke-linecap:butt;stroke-linejoin:miter;stroke-opacity:1" />
      <path
         sodipodi:nodetypes="csssscc"
         id="path274"
         d="m 104.32331,107.7672 c 4.42366,1.9248 15.77966,2.28671 17.63974,1.38765 1.86008,-0.89905 3.73526,-1.10721 4.06538,-5.06197 0.33012,-3.95477 0.49353,-4.664556 0.30911,-6.859592 -0.18442,-2.195035 -0.59245,-4.257677 -8.06243,-5.204099 -7.46999,-0.946422 -17.73347,-1.692846 -18.566489,1.486327 -0.694189,3.437579 1.291499,12.507344 4.614689,14.251684 z"
         style="fill:none;stroke:#000000;stroke-width:0.26739px;stroke-linecap:butt;stroke-linejoin:miter;stroke-opacity:1" />
      <path
         id="path276"
         d="m 76.029412,89.853291 c 0,0 -12.943048,0.258262 -14.09159,2.113334 -1.148543,1.85507 0.105081,10.710645 1.497439,12.727385 1.392358,2.01673 2.106842,4.17392 10.370743,4.22159 8.263903,0.0477 12.833866,-0.17232 14.067934,-3.1626 1.234067,-2.99029 2.204656,-7.853847 1.833322,-10.328817 -0.371334,-2.474969 -1.701828,-4.720699 -6.843844,-5.114426 -5.142014,-0.393725 -6.834004,-0.456466 -6.834004,-0.456466 z"
         style="fill:none;stroke:#000000;stroke-width:0.26739px;stroke-linecap:butt;stroke-linejoin:miter;stroke-opacity:1" />
      <path
         sodipodi:nodetypes="cssssssscccccccccccccccccccccc"
         id="path278"
         d="m 65.491146,131.19133 c 0,0 3.920974,0.18867 6.086224,2.56973 2.165252,2.38106 5.852592,8.45658 8.580562,10.95087 2.727969,2.49429 10.499889,2.63079 17.305456,1.74297 6.805562,-0.88784 9.070192,1.06571 14.812862,-2.54458 5.74266,-3.61028 4.67554,-2.92286 7.93465,-8.52282 3.25912,-5.59998 1.79692,-2.6913 4.69766,-7.78346 2.90075,-5.09218 3.62912,-4.79684 3.77406,-4.84973 0.14493,-0.0529 0.31992,-0.0771 0.31992,-0.0771 l -1.35312,6.68844 -1.76989,3.82694 -2.48058,4.5418 -1.53412,3.86905 -1.11753,3.00409 -1.96113,3.74925 -3.17117,3.83082 -4.20992,3.58663 -4.95164,2.73985 -6.684881,2.33124 -4.431535,0.89048 -3.34141,0.0896 -3.142909,-0.64673 -2.822269,-1.34998 -2.502096,-1.72999 -4.402789,-4.20441 -4.446075,-5.23825 -2.988668,-3.32163 -2.248997,-3.57947 -1.959556,-3.9144 z"
         style="fill:none;stroke:#000000;stroke-width:0.26739px;stroke-linecap:butt;stroke-linejoin:miter;stroke-opacity:1" />
      <path
         id="path280"
         d="m 61.608076,89.167407 c 0,0 -1.380481,-15.268891 -0.05631,-18.336155 1.324164,-3.067265 9.752745,-16.94911 13.874513,-18.068927 4.121768,-1.119816 6.464679,-3.083194 11.791992,-2.542 5.327316,0.541196 13.745629,5.205997 19.339699,5.659455 5.59408,0.453458 11.791,1.203393 14.74791,6.588586 2.9569,5.385195 5.25982,6.858949 6.35726,12.962524 1.09744,6.103576 2.58286,12.416205 2.87625,14.499067 0.29338,2.082865 0.37292,2.881524 0.37292,2.881524 l -3.15914,-0.885037 -6.97017,-1.501234 -3.7057,-0.689518 -5.24802,-0.538225 -1.88674,0.109135 -1.78285,0.504013 -1.62715,0.248154 -4.11382,0.424123 -2.817316,0.174927 -1.440177,0.234168 -2.450541,0.03598 -2.92148,-0.33547 -5.286381,-0.951723 -2.758333,-0.565805 -4.810033,-0.313136 -5.674175,-0.163224 -3.606792,-0.01147 -4.581512,0.195136 -1.710737,0.142563 z"
         style="fill:none;stroke:#000000;stroke-width:0.26739px;stroke-linecap:butt;stroke-linejoin:miter;stroke-opacity:1" />
      <path
         sodipodi:nodetypes="csssssssssssssscc"
         id="path286"
         d="m 77.918796,137.45934 c 0,0 1.258226,-0.73271 1.739591,-2.35515 0.481365,-1.62243 -0.06988,-1.6592 3.593845,-2.16738 3.663724,-0.50817 6.858569,-0.80785 11.057827,-1.02813 4.199255,-0.22029 5.825791,-1.0347 10.245381,-0.58344 4.4196,0.45127 4.44696,0.77103 6.8264,1.18275 2.36705,0.40958 2.55663,-0.34822 3.57498,1.22825 1.01835,1.57647 1.60753,2.41566 2.11265,1.02868 0.50512,-1.38698 2.76717,-4.95518 0.0921,-6.67946 -2.67503,-1.72428 -8.41251,-3.01346 -12.39189,-2.7143 -3.97937,0.29916 -6.939777,0.15749 -8.831912,0.68906 -1.892135,0.53156 -1.174592,-0.52825 -6.81542,0.53156 -5.640829,1.05982 -5.121692,0.27972 -8.683125,1.94095 -3.561431,1.66124 -4.419969,1.85433 -4.749948,3.96725 -0.329982,2.11292 -1.426234,2.31573 0.345003,3.72856 1.77124,1.41283 1.884478,1.2308 1.884478,1.2308 z"
         style="fill:none;stroke:#000000;stroke-width:0.26739px;stroke-linecap:butt;stroke-linejoin:miter;stroke-opacity:1" />
      <path
         id="path300"
         d="m 69.823239,98.881563 c 0,0 2.964738,2.055237 4.259535,2.209477 1.294798,0.15424 4.602938,-0.557 6.460358,-0.84676 1.857422,-0.289766 3.702734,-0.21411 4.447308,-0.357293 0.744574,-0.14318 2.230382,0.208233 0.08235,-1.378996 -2.148029,-1.587226 -5.702171,-4.582705 -8.64097,-3.764536 -2.938799,0.818167 -5.357352,1.913763 -6.018318,2.711837 -0.660966,0.79807 -0.59027,1.426271 -0.59027,1.426271 z"
         style="fill:none;stroke:#000000;stroke-width:0.26739px;stroke-linecap:butt;stroke-linejoin:miter;stroke-opacity:1" />
      <path
         sodipodi:nodetypes="csssssssscc"
         id="path302"
         d="m 105.69146,99.841165 c 0,0 1.2993,0.327615 3.0687,0.519985 1.75367,0.19067 1.41086,0.15804 4.64819,0.40843 3.03364,0.23463 3.49697,-0.11574 5.95842,-0.25797 2.29837,-0.13281 1.63753,-1.208625 -0.14002,-2.47129 -1.77756,-1.262667 -2.83316,-2.867361 -5.51614,-2.960652 -2.68298,-0.09329 -3.11766,0.257285 -5.16396,1.22332 -2.0463,0.96603 -2.87513,1.303902 -3.39269,2.214681 -0.51756,0.910779 -0.11414,1.369495 0.23493,1.369495 0.34908,0 0.30258,-0.046 0.30258,-0.046 z"
         style="fill:none;stroke:#000000;stroke-width:0.26739px;stroke-linecap:butt;stroke-linejoin:miter;stroke-opacity:1" />
      <path
         id="path308"
         d="m 74.76622,97.226133 c 0,0 0.697114,2.474951 1.720337,2.807857 1.023221,0.3329 3.958001,0.0101 4.186211,-1.152569 0.228207,-1.162637 0.0504,-3.280762 -0.697925,-3.640545 -0.748322,-0.359785 -1.869098,-0.606396 -1.869098,-0.606396 l -1.161205,0.0097 -0.986968,0.266124 c 0,0 -1.507079,1.287176 -1.125472,2.476304 0.381606,1.189126 -0.06588,-0.160454 -0.06588,-0.160454 z"
         style="fill:none;stroke:#000000;stroke-width:0.26739px;stroke-linecap:butt;stroke-linejoin:miter;stroke-opacity:1" />
      <path
         sodipodi:nodetypes="csscsscccscc"
         id="path310"
         d="m 109.17289,97.373861 c 0,0 0.0275,2.521234 1.24355,2.619684 0.44185,0.0358 0.40832,0.258545 1.81236,0.291485 1.09389,0.0257 2.0531,-0.25855 2.0531,-0.25855 0,0 1.1392,-1.658182 0.87893,-2.769599 -0.26517,-1.132389 -0.4398,-1.580993 -0.94885,-1.661476 -0.63352,-0.100162 -1.81235,-0.242783 -1.81235,-0.242783 l -1.28052,0.184896 -1.00063,0.302075 c 0,0 -1.13078,0.760914 -0.89863,2.042944 0.23214,1.28203 -0.0469,-0.508679 -0.0469,-0.508679 z"
         style="fill:none;stroke:#000000;stroke-width:0.26739px;stroke-linecap:butt;stroke-linejoin:miter;stroke-opacity:1" />
      <path
         sodipodi:nodetypes="cssssscc"
         id="path312"
         d="m 105.14384,81.311074 c -2.20913,0.315877 -4.24917,2.303834 0.61416,3.141896 4.86334,0.838064 6.60255,-0.759642 8.986,-0.239815 2.38346,0.519826 3.08772,0.723952 4.9071,2.274541 1.81938,1.550588 2.23718,2.060537 2.95972,2.779116 0.72255,0.718575 5.35,0.474747 0.90446,-3.751691 -4.44555,-4.226441 -5.66775,-4.598165 -8.02607,-4.803326 -8.32789,0.085 -1.96714,-0.358006 -10.34537,0.599279 z"
         style="fill:none;stroke:#000000;stroke-width:0.26739px;stroke-linecap:butt;stroke-linejoin:miter;stroke-opacity:1" />
      <path
         id="path314"
         d="m 83.711406,86.442691 c 0,0 5.998354,-1.843229 -0.115986,-3.827541 -6.114341,-1.984313 -7.972415,-1.107164 -10.270862,-0.656404 -2.298446,0.450758 -4.416994,0.828339 -6.442739,2.905367 -2.025745,2.077027 -3.019176,2.926247 -0.677841,2.568946 2.341336,-0.357299 1.955921,-1.502405 5.284902,-1.893763 3.328978,-0.391361 3.663268,-0.834383 7.147145,-0.391361 3.483882,0.443023 4.151728,0.109234 4.586475,0.723222 0.434748,0.613986 0.488906,0.571534 0.488906,0.571534 z"
         style="fill:none;stroke:#000000;stroke-width:0.26739px;stroke-linecap:butt;stroke-linejoin:miter;stroke-opacity:1" />
      <path
         sodipodi:nodetypes="csssssssssssssssssssssssssssssssssssssssssssssssssssscsscccccccccccccccccccccccccccccccccccccccccccccc"
         id="path346"
         d="m 57.088611,91.789277 c 0,0 -2.83991,-2.350282 -1.681024,-3.304426 1.158888,-0.954144 1.56968,-0.728934 0.779985,-2.225242 -0.7897,-1.496309 -0.656493,-1.150032 -0.06732,-1.563836 0.589174,-0.413806 1.119438,-1.38928 0.06548,-2.338739 -1.053958,-0.949462 -2.677854,-4.736138 -1.055961,-5.518513 1.621894,-0.782374 2.179615,-2.08533 1.75194,-4.236244 -0.427672,-2.150912 -0.31773,-2.735354 0.417493,-3.702924 0.735223,-0.967567 0.348659,-5.766422 1.984099,-3.735706 1.635442,2.030718 1.57452,-3.212316 0.411178,-4.435252 -1.163343,-1.222939 -0.210118,-1.950792 1.334227,-2.540904 1.544345,-0.590112 3.975104,-1.909149 3.887052,-0.483309 -0.08805,1.425839 2.513401,-2.331764 1.701761,-3.352543 -0.811641,-1.020777 -3.319962,1.671435 -2.395143,0.23102 0.924819,-1.440415 4.022047,-2.850982 4.304091,-1.302595 0.282041,1.548388 1.717743,0.497051 1.85404,-1.435319 0.136297,-1.932369 -1.177132,-0.71594 -0.903738,-2.60751 0.273393,-1.891569 0.06732,-3.671816 1.881862,-2.245637 1.814549,1.426179 3.615051,1.767978 3.188586,-0.785044 -0.42646,-2.553021 0.190517,-4.575335 2.158922,-3.265544 1.968404,1.309792 2.282478,-0.4137 3.922696,-1.684712 1.640219,-1.271011 4.01697,-3.626284 3.462524,-0.647531 -0.554448,2.978753 4.23564,2.00361 5.374026,0.618117 1.138387,-1.385494 -1.652269,-2.423263 -2.476459,-1.986443 -0.824189,0.436819 3.728185,-3.011299 4.391357,-0.248889 0.663172,2.762409 2.956134,-0.210709 3.935843,-0.337184 0.97971,-0.126475 4.509958,-1.784032 3.814039,0.520162 -0.695922,2.304195 1.097373,1.894543 3.134323,1.145214 2.03697,-0.749329 5.58645,0.128773 3.95711,1.895405 -1.62934,1.766633 -4.63401,3.187256 -2.07038,2.856886 2.56364,-0.330369 4.03264,0.296241 4.64894,-1.540818 0.61629,-1.837058 2.92803,0.781712 2.67075,1.864403 -0.25728,1.082691 -0.0195,2.249522 2.38427,1.754099 2.40375,-0.495424 3.0124,-1.004487 2.32895,1.888873 -0.68344,2.89336 -2.75041,3.235126 0.71127,3.21552 3.46167,-0.01961 0.4882,3.311677 4.01256,2.591557 3.52436,-0.72012 5.98208,-1.771464 4.56891,0.739641 -1.41316,2.511107 -1.3809,4.897136 0.5155,4.516893 1.89639,-0.380243 2.50219,1.104886 2.8189,2.617361 0.31671,1.512471 -1.51898,2.848418 0.92968,1.903218 2.44865,-0.9452 4.24124,1.125469 2.55418,3.143673 -1.68706,2.018206 -1.27812,5.551297 0.6312,4.106202 1.90932,-1.445096 3.22012,-1.599198 2.43205,0.453631 -0.78807,2.052829 2.21975,3.26282 0.13811,3.899504 -2.08163,0.636682 0.25782,2.193699 0.80314,2.918978 0.54531,0.725278 1.35425,1.496629 0.25118,2.080242 -1.10307,0.583609 -2.33974,2.58238 -1.07654,2.989669 1.26319,0.407287 1.48614,1.358268 0.87411,2.272927 -0.61203,0.914661 -0.61727,1.291904 0.39188,2.35375 1.00916,1.061847 2.27221,1.178736 0.15057,1.935891 -2.12162,0.757152 -2.42235,2.811456 -1.16691,2.953176 1.25544,0.141723 2.57574,1.628151 1.06487,1.841695 -1.51088,0.213541 -3.87372,5.35664 -1.0655,4.035612 2.80823,-1.321031 0.001,4.360908 -1.51741,2.884278 -1.5186,-1.47664 -1.54625,3.49028 -2.52641,1.52033 -0.98017,-1.96995 -0.20579,-2.18141 -0.89322,-2.45221 -0.68744,-0.2708 -0.68097,-0.24778 -0.68097,-0.24778 l -0.1666,-1.600189 -0.63621,-1.906956 -0.31977,-0.52726 0.15712,-0.634484 0.38508,-0.307285 0.477,0.04178 0.782,0.298681 1.01529,0.483159 0.9579,0.47106 0.67937,0.04793 0.40176,-0.263261 0.20699,-0.529112 0.057,-0.814556 -0.27966,-0.743892 -0.78104,-0.913824 -1.36486,-1.154212 -0.76437,-0.448451 -2.31276,-0.677287 -2.4399,-0.62934 -3.26886,-0.608292 -5.39986,-1.0596 -4.47633,-0.513961 -3.07206,-0.01639 -1.78285,0.504013 -2.40982,0.352467 -3.06235,0.271816 -1.99608,0.130532 -1.090037,0.09239 -1.440177,0.234168 -2.450541,0.03598 -1.799354,-0.158119 -2.50497,-0.419012 -2.268159,-0.447874 -2.975844,-0.543413 -1.417869,-0.284579 -6.2545,-0.37703 -4.767566,-0.102241 -5.043887,0.03151 -4.820209,0.336629 -3.238579,0.32189 -1.662036,0.477651 -0.910092,0.529469 -0.69236,0.764513 z"
         style="fill:none;stroke:#000000;stroke-width:0.26739px;stroke-linecap:butt;stroke-linejoin:miter;stroke-opacity:1" />
      <path
         id="path348"
         d="m 90.657441,101.2052 c 0,0 -1.459483,9.77647 -2.479325,11.04578 -1.019845,1.2693 -3.568587,4.50151 -3.708496,6.00177 -0.139907,1.50026 0.41318,2.29948 1.702388,2.28293 1.289209,-0.0165 1.851786,-0.66216 3.281658,0.74242 1.429873,1.40457 3.22157,3.81538 6.72047,2.54967 3.498897,-1.26571 3.235822,-2.61577 5.265514,-3.72605 2.0297,-1.11028 1.31883,-0.56463 3.79518,-0.40353 2.47634,0.1611 2.40515,-2.61434 0.43877,-4.91523 -1.96639,-2.30088 -1.48034,-1.93236 -1.72286,-2.10499 -0.24251,-0.17263 0.73505,0.86887 0.73505,0.86887 l 2.06783,2.73371 0.3143,1.02702 0.0542,1.09485 -0.29714,0.86548 -0.88179,0.36458 -0.65997,0.13093 -1.24485,-0.21791 -0.92412,-0.12642 -1.38289,0.45557 -1.04398,0.68618 -1.202091,1.19332 -1.335451,1.1875 -1.682099,0.82852 -1.793899,0.38666 -1.328088,-0.0785 -1.430393,-0.58172 -1.812332,-1.54785 -1.647242,-1.45825 -1.106742,-0.16002 -1.32287,0.24667 -0.941318,-0.29677 -0.673496,-1.08315 0.01995,-0.9902 0.418093,-1.26057 0.993814,-1.61963 2.458025,-3.32104 0.572315,-1.50299 0.401501,-1.73592 0.504261,-2.57466 0.4585,-2.22764 z"
         style="fill:none;stroke:#000000;stroke-width:0.26739px;stroke-linecap:butt;stroke-linejoin:miter;stroke-opacity:1" />
      <path
         sodipodi:nodetypes="csccccccccccc"
         id="path354"
         d="m 83.603712,132.92132 c 0,0 3.468737,2.74883 8.278593,2.51042 4.809853,-0.23841 9.380845,-0.006 11.947085,-0.63822 2.56625,-0.63181 3.73038,-2.51091 3.72175,-2.82537 -0.009,-0.31446 -0.52986,-0.31735 -0.52986,-0.31735 l -2.88915,-0.33537 -2.12741,-0.18174 -1.76345,0.0484 -2.498092,0.36114 -2.331678,0.32505 -3.169487,0.10768 -3.830198,0.34575 z"
         style="fill:none;stroke:#000000;stroke-width:0.26739px;stroke-linecap:butt;stroke-linejoin:miter;stroke-opacity:1" />
      <path
         id="path1323"
         d="m 131.74141,103.45831 c -0.15941,-0.41381 -0.28984,-0.99636 -0.28984,-1.29455 0,-0.31739 -0.22161,-0.60012 -0.53454,-0.68195 -0.29399,-0.0769 -0.53454,-0.35559 -0.53454,-0.61934 0,-0.26376 -0.23663,-1.239862 -0.52585,-2.169124 -0.28922,-0.929264 -0.42722,-1.788202 -0.30667,-1.908752 0.12055,-0.120552 0.91337,0.08782 1.76182,0.463045 1.87494,0.82918 2.43508,0.852863 2.82754,0.119544 0.53433,-0.99841 0.0707,-2.256332 -1.26481,-3.431924 -0.67701,-0.595934 -1.3269,-1.083516 -1.4442,-1.083516 -0.11729,0 -0.29176,-0.571288 -0.38771,-1.269529 -0.41723,-3.036451 -3.67154,-18.679358 -4.15459,-19.97043 -1.00401,-2.683451 -6.35503,-11.082729 -7.81443,-12.265982 -2.4001,-1.945963 -5.28225,-2.906284 -10.5282,-3.507955 -4.33148,-0.496789 -6.04731,-0.944686 -12.200022,-3.184662 -6.712376,-2.443731 -7.621315,-2.667328 -10.864154,-2.672546 -2.699264,-0.0043 -2.958791,0.04866 -6.802509,1.389121 -2.197899,0.766501 -4.474517,1.723914 -5.059151,2.127586 -2.296279,1.585513 -7.477686,8.526865 -10.952668,14.672916 -1.431049,2.531036 -1.552035,2.881749 -1.797886,5.211754 -0.179615,1.702261 -0.167383,4.499068 0.03839,8.778947 0.166086,3.454458 0.320868,6.387158 0.343955,6.517113 0.0231,0.129955 -0.596651,0.384963 -1.377196,0.566692 -0.86093,0.200441 -1.726464,0.624811 -2.200367,1.078842 -0.773078,0.740653 -0.787054,0.743127 -1.345094,0.238106 -1.153906,-1.044268 -1.198237,-1.47729 -0.231976,-2.265913 l 0.884946,-0.722259 -0.478475,-1.252871 c -0.423989,-1.1102 -0.43266,-1.289029 -0.07613,-1.570395 0.747723,-0.590089 0.768344,-1.379246 0.06124,-2.343824 -0.96397,-1.314982 -1.529726,-2.624797 -1.675903,-3.879985 -0.11872,-1.019427 -0.06275,-1.135491 0.806625,-1.672797 1.340662,-0.828577 1.642189,-1.763815 1.435518,-4.45253 -0.146892,-1.910995 -0.09595,-2.399371 0.340055,-3.259788 0.282059,-0.556622 0.594368,-1.643332 0.694021,-2.414908 0.208407,-1.613617 0.492125,-1.910617 1.207074,-1.263597 0.27926,0.252725 0.677445,0.39438 0.884854,0.314791 0.89358,-0.342897 0.724771,-3.588131 -0.274653,-5.280022 -0.236429,-0.400241 -0.362326,-0.903732 -0.279771,-1.118868 0.140073,-0.365029 3.973359,-2.078466 4.642816,-2.075291 0.166603,7.94e-4 0.365948,0.242478 0.442989,0.537081 0.211778,0.809847 0.828276,0.409694 1.625502,-1.055074 1.020993,-1.875901 0.849739,-2.922643 -0.487156,-2.977594 -0.368681,-0.01516 -0.160557,-0.200197 0.636262,-0.565701 l 1.184164,-0.543179 0.755068,0.899787 0.755068,0.899787 0.666644,-0.749895 c 0.802291,-0.902478 0.935699,-2.836767 0.23572,-3.4177 -0.342926,-0.284604 -0.396163,-0.653444 -0.260683,-1.806156 0.09364,-0.796687 0.230327,-1.545733 0.30376,-1.66455 0.07343,-0.118816 0.717084,0.146736 1.430335,0.590119 0.925046,0.57504 1.555318,0.781431 2.198507,0.719931 l 0.901684,-0.08622 0.06763,-2.004521 c 0.09342,-2.769142 0.222633,-3.208957 0.939726,-3.198734 0.327945,0.0047 0.829728,0.185082 1.11507,0.400904 0.931418,0.704489 1.711537,0.46714 3.173558,-0.965548 1.293913,-1.267949 3.427373,-2.91836 3.772522,-2.91836 0.08376,0 0.152297,0.58663 0.152297,1.303622 0,1.649589 0.438615,2.043562 2.246656,2.017993 1.572303,-0.02224 3.506663,-0.898043 3.76228,-1.70342 0.231677,-0.729951 -0.280368,-1.578919 -1.072163,-1.777648 -0.938649,-0.235585 -0.817928,-0.573752 0.316653,-0.887024 1.184291,-0.327 1.573594,-0.136659 2.171798,1.061856 0.58342,1.168886 1.273696,1.266548 2.598341,0.367619 1.154887,-0.783729 3.074455,-1.444719 4.208536,-1.449183 0.692497,-0.0027 0.734992,0.0661 0.734992,1.190416 0,1.671979 0.44632,1.852964 3.020871,1.224977 1.36929,-0.333997 2.33372,-0.428751 2.94977,-0.28981 2.02999,0.457837 1.99679,0.875994 -0.22435,2.826048 -0.95549,0.838873 -1.73725,1.630807 -1.73725,1.759853 0,0.27141 2.85452,0.309091 4.37592,0.05776 0.80017,-0.132184 1.15489,-0.374111 1.5632,-1.066136 0.29048,-0.492334 0.64228,-0.895153 0.78178,-0.895153 0.59599,0 1.56446,1.441375 1.56446,2.328389 0,0.502693 0.13281,1.162145 0.29513,1.465448 0.27556,0.514879 0.44618,0.539208 2.57192,0.366726 l 2.27679,-0.184738 -0.18485,1.018871 c -0.10166,0.560377 -0.47646,1.663076 -0.83289,2.450439 -0.35642,0.787363 -0.5816,1.53906 -0.50041,1.670433 0.0812,0.131376 0.77196,0.240708 1.53502,0.242959 1.71555,0.0051 1.94283,0.145793 2.38053,1.474049 0.34004,1.031923 0.38238,1.060371 1.54912,1.040945 0.65973,-0.01098 2.06769,-0.185158 3.12881,-0.387048 1.0611,-0.20189 2.01075,-0.285605 2.11032,-0.186031 0.0996,0.09957 -0.13718,0.89014 -0.52612,1.756815 -0.84147,1.875038 -0.9,3.053352 -0.18708,3.766267 0.38404,0.384045 0.75106,0.482816 1.40316,0.377618 0.71731,-0.115718 1.00852,-0.0084 1.55126,0.571916 0.57881,0.618831 0.66476,0.947345 0.64261,2.456272 l -0.0256,1.741898 1.09465,-0.201253 c 1.71285,-0.314912 2.37473,-0.217551 2.89582,0.425969 0.54908,0.67809 0.44654,1.232675 -0.49123,2.656615 -0.86426,1.312314 -1.09942,3.014011 -0.53546,3.874719 0.54468,0.831297 0.85665,0.839005 2.03662,0.05031 0.51186,-0.342133 1.15694,-0.705234 1.43349,-0.806892 0.46134,-0.169582 0.48885,-0.07944 0.3334,1.092443 -0.13354,1.006605 -0.0526,1.495174 0.38168,2.305535 0.5907,1.102135 0.57851,1.159803 -0.34218,1.618818 -0.97368,0.485437 -0.86545,1.129377 0.44082,2.622638 0.67238,0.768635 1.22252,1.497864 1.22252,1.620509 0,0.122645 -0.41273,0.612246 -0.91718,1.088001 -0.50445,0.475755 -0.99896,1.190866 -1.09892,1.589138 -0.19415,0.77352 0.21649,1.518996 0.83671,1.518996 0.65397,0 0.91679,0.912035 0.49634,1.722446 -0.58447,1.126569 -0.47662,1.650248 0.58093,2.820837 l 0.96697,1.070313 -0.94227,0.393708 c -1.12885,0.47166 -2.11469,1.641184 -2.00581,2.379533 0.0449,0.304549 0.52964,0.770311 1.12891,1.084741 1.29073,0.67723 1.43426,1.036503 0.57119,1.429743 -0.96082,0.437779 -2.08955,2.278218 -2.12557,3.46584 l -0.0304,1.000839 1.13589,-0.0506 c 0.96021,-0.04277 1.1359,0.02892 1.1359,0.46351 0,0.28276 -0.34825,0.90386 -0.77389,1.38023 -0.7184,0.80403 -0.82197,0.8404 -1.4445,0.50724 -0.82109,-0.43944 -1.11608,-0.27433 -1.77059,0.99099 l -0.50947,0.98495 z"
         style="fill:#dc5f3c;fill-opacity:0.99;stroke:#000000;stroke-width:0.267269;stroke-opacity:1" />
      <path
         id="path1325"
         d="m 134.4118,95.75396 c -0.19292,-0.64394 -0.77105,-1.412846 -1.62193,-2.157179 l -1.32216,-1.156587 -0.68737,-3.736448 c -1.1188,-6.08162 -3.32554,-16.126473 -3.8406,-17.481994 -0.60446,-1.590795 -2.91951,-5.513528 -5.29516,-8.972368 -3.03388,-4.417195 -5.20286,-5.506923 -13.31182,-6.688076 -4.18423,-0.609473 -5.11432,-0.85692 -11.759861,-3.128624 l -7.216278,-2.466806 -3.374956,-0.09826 c -3.309474,-0.09636 -3.431334,-0.07908 -6.280833,0.890479 -4.824674,1.641623 -6.463799,2.510997 -8.098141,4.295164 -3.006749,3.282384 -7.506975,9.825627 -9.852962,14.326013 l -0.990946,1.90097 0.03137,8.758134 0.03137,8.758132 -0.869214,0.163065 c -0.478068,0.08969 -1.394219,0.520467 -2.035895,0.957289 l -1.166683,0.794224 -0.619215,-0.702591 -0.619215,-0.70259 0.851893,-0.878933 0.851894,-0.87893 -0.411789,-1.208542 c -0.355066,-1.042057 -0.359505,-1.251937 -0.03223,-1.523553 0.625014,-0.518716 0.43425,-1.697601 -0.535223,-3.307572 -0.503135,-0.835536 -0.997392,-2.008079 -1.098352,-2.605651 -0.172717,-1.022303 -0.120675,-1.143982 0.880835,-2.059453 1.233421,-1.127456 1.555763,-2.341402 1.271675,-4.789123 -0.139354,-1.200676 -0.06463,-1.824191 0.343141,-2.863498 0.286705,-0.730734 0.606679,-1.839762 0.711051,-2.464504 0.19961,-1.1948 0.376717,-1.315579 1.246519,-0.850079 0.395105,0.211455 0.641966,0.196254 0.94883,-0.05842 0.567661,-0.471119 0.36604,-4.005146 -0.301583,-5.286144 -0.575445,-1.104141 -0.498297,-1.186517 2.175471,-2.322881 1.59545,-0.678077 1.761886,-0.70205 1.994026,-0.287239 0.449977,0.804066 1.232274,0.522539 1.949691,-0.701646 0.921483,-1.572393 1.113105,-2.653247 0.567169,-3.199183 -0.39765,-0.39765 -0.389263,-0.454676 0.105841,-0.719648 0.45397,-0.242957 0.658392,-0.152715 1.312577,0.579448 0.682987,0.764394 0.828059,0.823079 1.223473,0.494914 1.179002,-0.978485 1.52268,-2.748159 0.778394,-4.008131 -0.326729,-0.553111 -0.389941,-1.051698 -0.250892,-1.978943 0.102233,-0.681749 0.232283,-1.239541 0.288997,-1.239541 0.05671,0 0.668613,0.300678 1.359778,0.668173 2.535907,1.348357 3.311488,0.797857 3.319296,-2.356008 0.0057,-2.306315 0.205819,-2.548779 1.588828,-1.925128 1.037376,0.467791 1.147138,0.47047 1.958004,0.04778 0.472464,-0.246285 1.761059,-1.228706 2.863543,-2.183159 l 2.004523,-1.735369 0.142555,1.172463 c 0.0784,0.644855 0.303607,1.366519 0.500446,1.603698 0.507463,0.611454 3.051366,0.562368 4.480375,-0.08645 1.840368,-0.835596 2.071605,-1.946714 0.656791,-3.155942 l -0.702045,-0.600029 0.980461,-0.0013 c 0.827439,-0.0011 1.068136,0.14053 1.542208,0.907597 0.30896,0.499908 0.755894,0.983425 0.993185,1.074482 0.244322,0.09376 1.277493,-0.252484 2.382203,-0.798332 1.07292,-0.53014 2.439866,-1.029493 3.037657,-1.109673 l 1.086893,-0.145783 v 0.919552 c 0,1.517804 0.490537,1.933872 2.02978,1.721628 2.74562,-0.378592 4.79668,-0.452944 5.1865,-0.188012 0.3298,0.224145 0.0691,0.607363 -1.46999,2.160796 -2.12851,2.148359 -2.08658,2.398821 0.40091,2.394957 2.27597,-0.0035 3.51021,-0.387211 4.28009,-1.330509 0.68075,-0.83409 0.68159,-0.834298 1.17324,-0.291025 0.27061,0.299013 0.59715,1.106467 0.72566,1.79434 0.36454,1.951284 0.54714,2.064285 2.99116,1.851089 l 2.10669,-0.183769 -0.19296,0.878583 c -0.10614,0.483219 -0.41841,1.404501 -0.69394,2.047293 -0.89431,2.086343 -0.65993,2.460744 1.54044,2.460744 1.16582,0 1.20968,0.0312 1.74488,1.241086 l 0.54898,1.241087 2.44277,-0.178094 c 1.34352,-0.09795 2.77338,-0.249491 3.17748,-0.336751 l 0.73472,-0.158652 -0.68892,1.830303 c -1.03138,2.740115 -0.61213,4.111836 1.25672,4.111836 1.62805,0 2.10544,0.667031 2.10544,2.941834 v 1.87275 l 1.83142,-0.17021 c 1.70038,-0.158035 1.86189,-0.126709 2.2573,0.437822 0.40074,0.572127 0.37692,0.702125 -0.4033,2.20126 -1.0506,2.018665 -1.14905,3.656748 -0.27248,4.533508 l 0.60662,0.606737 1.30366,-0.732824 c 0.71701,-0.403053 1.37175,-0.732825 1.45497,-0.732825 0.0832,0 0.1409,0.518576 0.12818,1.15239 -0.0127,0.633815 0.16467,1.515563 0.39421,1.959441 0.40603,0.785183 0.39604,0.825733 -0.36867,1.496756 -0.92844,0.814689 -0.86901,1.111559 0.59586,2.97643 l 1.02444,1.304184 -0.90785,1.00488 c -0.49931,0.552683 -0.99028,1.264605 -1.09103,1.582049 -0.22011,0.693497 0.47885,1.887347 1.10498,1.887347 0.35462,0 0.39409,0.175141 0.22584,1.00226 -0.37217,1.829631 -0.25232,2.45767 0.64588,3.384373 l 0.85437,0.881491 -0.79039,0.327393 c -0.93231,0.386178 -1.7799,1.252961 -2.02886,2.07481 -0.18653,0.615743 0.21701,1.171612 1.42308,1.960303 l 0.62672,0.409829 -0.94022,0.940218 -0.94021,0.940215 z"
         style="fill:#dc5f3c;fill-opacity:0.99;stroke:#000000;stroke-width:0.267269;stroke-opacity:1" />
      <path
         id="path1329"
         d="m 134.65881,95.673307 c 0,-0.212116 -0.67439,-1.114083 -1.49863,-2.004364 l -1.49862,-1.618694 -0.91391,-4.744191 c -0.50265,-2.609305 -1.45874,-7.209753 -2.12465,-10.223217 -1.38548,-6.269805 -1.91342,-7.508465 -5.60351,-13.146915 -4.16636,-6.366209 -5.40286,-7.087368 -14.82037,-8.643631 -3.41229,-0.563888 -5.43852,-1.116354 -11.492586,-3.133534 l -7.349913,-2.448949 -3.608136,-0.01106 c -3.401586,-0.01042 -3.761145,0.04037 -6.280835,0.887034 -3.816466,1.282409 -5.932998,2.346005 -7.400981,3.719134 -2.451446,2.293041 -6.994956,8.654622 -9.980972,13.974826 l -1.460547,2.60227 v 8.825465 8.825468 l -0.734992,0.163793 c -0.404246,0.09009 -1.273318,0.500359 -1.931273,0.911715 l -1.196284,0.747919 -0.455734,-0.55639 c -0.437005,-0.533527 -0.422696,-0.590735 0.348234,-1.39215 0.778896,-0.809705 0.793448,-0.87086 0.466685,-1.961497 -0.261358,-0.872334 -0.265988,-1.239885 -0.02059,-1.632854 0.490641,-0.785644 0.390909,-1.278967 -0.752374,-3.721611 -0.584827,-1.249484 -1.064615,-2.437622 -1.0662,-2.640301 -0.0016,-0.202681 0.411599,-0.827291 0.918184,-1.388017 1.135877,-1.257284 1.590439,-2.831912 1.356961,-4.700612 -0.13906,-1.112985 -0.02294,-1.938607 0.553193,-3.933279 l 0.729197,-2.524607 0.866616,0.140634 c 0.709279,0.115102 0.926063,0.02955 1.194062,-0.471207 0.402061,-0.751255 0.186875,-3.54302 -0.37714,-4.892895 -0.474593,-1.135861 -0.358309,-1.270008 1.894634,-2.185672 1.389869,-0.564886 1.583587,-0.585901 1.992193,-0.216117 0.628627,0.568899 1.420273,0.249708 2.097207,-0.845595 0.800174,-1.294707 1.08476,-2.451685 0.792279,-3.220974 -0.336145,-0.884127 0.165079,-0.854607 1.126334,0.06633 l 0.747815,0.716455 0.674471,-0.633629 c 1.08186,-1.016349 1.373002,-2.407378 0.811559,-3.877493 -0.305364,-0.799584 -0.408268,-1.542274 -0.296347,-2.138854 l 0.171453,-0.913929 1.423376,0.698087 c 2.455185,1.204137 3.366294,0.433366 3.366294,-2.847779 0,-0.835554 0.07101,-1.590199 0.157797,-1.676988 0.08679,-0.08679 0.631227,0.0092 1.209863,0.213391 1.369192,0.48308 1.813438,0.298637 4.450392,-1.847729 l 2.136855,-1.739309 0.166052,1.038428 c 0.199687,1.248773 0.969748,1.869389 2.319544,1.869389 1.264814,0 3.374125,-0.643499 4.017322,-1.225586 0.616797,-0.558191 0.658223,-1.650049 0.09321,-2.456719 -0.731899,-1.04493 0.285207,-0.7299 1.102354,0.341435 0.426252,0.558847 0.942824,0.933634 1.283132,0.930948 0.313298,-0.0025 1.591939,-0.421399 2.841423,-0.930948 2.857474,-1.165295 3.207237,-1.179868 3.207237,-0.133634 0,1.258457 0.879428,1.956818 2.231366,1.771938 2.95873,-0.404612 4.98491,-0.493258 4.98491,-0.218089 0,0.157613 -0.66149,1.001059 -1.46998,1.874325 -0.80849,0.873266 -1.46998,1.779865 -1.46998,2.014664 0,0.590631 1.08015,0.805582 3.10021,0.616945 1.8201,-0.169964 2.54542,-0.445832 3.52878,-1.342144 0.52503,-0.478551 0.65249,-0.503091 0.86767,-0.167054 0.28414,0.44373 0.78493,2.093118 0.7872,2.592713 7.9e-4,0.180359 0.29658,0.521277 0.65725,0.757595 0.52406,0.343376 1.01563,0.391128 2.4477,0.237765 1.47033,-0.157459 1.76675,-0.125537 1.65155,0.17785 -0.0772,0.203364 -0.4207,1.242007 -0.76327,2.308096 -0.74065,2.304912 -0.62534,2.525696 1.42703,2.732071 1.33549,0.13429 1.41969,0.190141 1.92423,1.276332 0.49506,1.065808 0.59401,1.135049 1.60361,1.122169 0.5918,-0.0075 1.9179,-0.110694 2.94688,-0.229214 1.02899,-0.11852 1.91601,-0.177469 1.97117,-0.130998 0.0551,0.04647 -0.0999,0.584679 -0.34448,1.19602 -0.24461,0.611341 -0.45577,1.660896 -0.46924,2.332347 -0.0292,1.456349 0.66289,2.190962 2.06424,2.190962 1.28678,0 1.7228,0.761934 1.7228,3.010577 v 1.822564 l 1.99049,-0.180374 c 1.94788,-0.176512 1.99397,-0.166542 2.15263,0.465616 0.10404,0.414499 -0.0815,1.169522 -0.5179,2.106933 -0.89049,1.913067 -0.90191,3.453852 -0.033,4.452821 l 0.65226,0.749895 1.35226,-0.750409 1.35226,-0.750408 v 0.910976 c 0,0.501042 0.13452,1.296884 0.29895,1.768541 0.26037,0.746919 0.22589,0.935329 -0.26728,1.460273 -0.80668,0.858681 -0.7097,1.483582 0.49035,3.159431 l 1.05657,1.475479 -0.77621,0.743656 c -1.37793,1.320141 -1.51164,2.893949 -0.30964,3.644612 0.44192,0.275976 0.49751,0.541652 0.38137,1.822489 -0.12329,1.359596 -0.0649,1.583918 0.6265,2.405557 0.60137,0.714693 0.67868,0.933734 0.36592,1.036733 -0.2181,0.07183 -0.78743,0.520187 -1.26518,0.996355 -1.1639,1.160068 -1.16615,2.148644 -0.007,3.101245 0.85619,0.703643 0.86046,0.718621 0.36189,1.269531 -0.5887,0.6505 -0.95621,0.716534 -0.95621,0.171813 z"
         style="fill:#6c2613;fill-opacity:1;stroke:#000000;stroke-width:0.267269;stroke-opacity:1" />
      <path
         id="path1331"
         d="m 131.88665,103.13429 c -0.0923,-0.24051 -0.16781,-0.66377 -0.16781,-0.94057 0,-0.2768 -0.22682,-0.62467 -0.50405,-0.77304 -0.50885,-0.27232 -1.6011,-3.880174 -1.2738,-4.207485 0.0863,-0.08625 0.88,0.113626 1.76388,0.444175 0.88388,0.330549 1.78983,0.53086 2.01322,0.445135 0.32134,-0.123309 0.40618,0.06568 0.40618,0.904825 0,1.05929 0.001,1.06069 1.06908,1.06069 1.23788,0 1.33651,0.31792 0.43891,1.41465 -0.54115,0.66121 -0.69529,0.71442 -1.34917,0.46581 -0.86987,-0.33072 -1.1103,-0.21587 -1.74993,0.83592 -0.38936,0.64024 -0.51003,0.70555 -0.64651,0.34989 z"
         style="fill:#6c2613;fill-opacity:1;stroke:#000000;stroke-width:0.267269;stroke-opacity:1" />
      <path
         id="path1335"
         d="m 128.1107,91.761628 c -2.93882,-0.796917 -11.23501,-2.346799 -14.03165,-2.621373 -2.6,-0.255272 -2.7964,-0.242937 -6.01356,0.377643 -2.62917,0.507164 -9.168941,1.067866 -12.027129,1.031179 -1.486093,-0.01908 -4.067119,-0.354087 -6.753236,-0.876551 -6.978094,-1.357284 -11.643957,-1.534465 -26.388186,-1.002065 l -1.069078,0.03861 -0.207484,-2.405425 c -0.114117,-1.32299 -0.234389,-5.067693 -0.267269,-8.321565 l -0.05978,-5.916131 1.311854,-2.591845 c 1.557685,-3.077528 5.504434,-9.094706 7.837168,-11.948467 2.791589,-3.415107 3.605511,-3.990846 7.615356,-5.386837 7.608776,-2.648927 7.682405,-2.641426 21.588799,2.198811 3.735285,1.300099 4.590785,1.483559 10.156235,2.178003 5.57868,0.696092 8.94367,2.407123 10.89661,5.5407 0.43263,0.694182 1.72277,2.756276 2.86696,4.582433 1.1442,1.826159 2.36099,4.010929 2.70399,4.855045 0.51213,1.260364 3.68276,16.218085 4.20155,19.821152 0.16711,1.160621 0.22871,1.148969 -2.36115,0.446683 z m -2.89862,-2.418699 c 1.06552,-0.884301 -0.0175,-2.804737 -3.07742,-5.457201 -3.55832,-3.084462 -3.80284,-3.179831 -8.42706,-3.286828 -4.51844,-0.104548 -8.67396,0.296814 -10.05206,0.970878 -0.75952,0.371504 -0.93544,0.608337 -0.93544,1.259358 0,0.666274 0.17547,0.887481 1.03806,1.308645 1.35322,0.660718 5.35565,0.880351 8.06831,0.442754 3.46907,-0.559623 5.63111,0.222898 8.74448,3.164938 1.0599,1.001577 2.1075,1.893699 2.328,1.982493 0.52818,0.212702 1.86002,-0.009 2.31313,-0.385037 z M 68.660334,86.74934 c 2.593033,-1.237938 6.312799,-1.676196 10.771251,-1.269053 2.797534,0.255469 3.50548,0.405683 3.79812,0.805889 0.31755,0.43428 0.456104,0.451954 1.182899,0.150906 2.055122,-0.85126 2.630887,-1.924926 1.564857,-2.918082 -0.787234,-0.73342 -4.164042,-1.827927 -6.827846,-2.213073 -1.901388,-0.274913 -2.557502,-0.254585 -4.688152,0.145238 -4.528626,0.849812 -5.66353,1.353066 -7.91125,3.508097 -1.528009,1.464998 -1.963148,2.038773 -1.823048,2.403872 0.256328,0.667983 1.730034,0.438002 3.933169,-0.613794 z"
         style="fill:#ffe4cc;fill-opacity:1;stroke:#000000;stroke-width:0.267269;stroke-opacity:1" />
      <path
         sodipodi:nodetypes="ssssssscssssssssssssssssssssssssssssssssssssssssssssssccsscsssssssssssssss"
         id="path1337"
         d="m 84.248766,146.19015 c -3.586578,-0.81322 -3.972356,-1.17991 -10.343676,-9.83209 -1.361991,-1.84955 -2.720086,-3.39217 -3.31646,-3.76706 -1.04489,-0.65681 -3.184017,-1.42971 -4.350604,-1.57192 -0.605232,-0.0738 -0.710147,-0.28222 -1.117227,-2.21959 -0.2471,-1.17598 -0.878457,-6.1071 -1.403017,-10.95804 -0.52456,-4.85095 -1.019664,-9.29716 -1.10023,-9.88048 l -0.146484,-1.06057 0.614627,0.57741 c 0.95943,0.90133 3.338978,1.86827 5.823024,2.3662 1.906074,0.38207 3.191552,0.42804 8.018087,0.28673 8.34645,-0.24437 9.973283,-0.63469 11.498762,-2.75888 0.469694,-0.65404 0.903513,-1.13963 0.964044,-1.07911 0.233619,0.23363 -0.745614,4.12193 -1.309904,5.20131 -0.326684,0.62489 -1.29893,2.14614 -2.160546,3.38056 -1.833832,2.6273 -2.202833,4.11564 -1.297558,5.2336 0.465216,0.57452 0.72051,0.64898 2.036328,0.59392 1.495946,-0.0626 1.515901,-0.0532 3.538813,1.67288 2.187363,1.86636 3.052984,2.19466 5.060939,1.91944 1.59753,-0.21897 2.929551,-0.94517 4.49004,-2.44793 1.723816,-1.66005 3.059266,-2.25348 4.484616,-1.99284 1.63271,0.29857 2.82074,-0.11793 3.02799,-1.06153 0.30369,-1.38273 -0.13345,-2.57246 -1.63976,-4.46272 -0.80353,-1.00836 -1.51425,-1.80332 -1.57937,-1.76657 -0.27357,0.1544 -0.0516,0.55979 1.22861,2.24374 1.43802,1.89153 1.91889,3.38915 1.31996,4.11083 -0.25743,0.31017 -0.81691,0.40133 -2.25811,0.36792 -2.2086,-0.0512 -2.6382,0.1286 -4.68516,1.96098 -1.67544,1.49981 -2.930467,2.21512 -4.35556,2.48246 -1.749439,0.3282 -2.727407,-0.053 -4.92278,-1.91869 -2.03386,-1.72846 -2.082445,-1.75187 -3.377403,-1.62744 -1.490298,0.1432 -2.31135,-0.3895 -2.31135,-1.49961 0,-0.82686 1.066901,-2.80384 2.560936,-4.74546 1.632294,-2.12128 1.805615,-2.61423 2.904099,-8.25961 1.049925,-5.39583 2.047102,-8.075349 3.36891,-9.052603 1.823868,-1.348444 2.672855,-0.341017 4.928309,5.848053 1.710689,4.69422 3.645549,6.9054 6.909189,7.89594 3.09351,0.93889 15.17268,1.27737 17.83368,0.49973 1.79099,-0.5234 3.29731,-1.88463 4.13036,-3.73251 0.33783,-0.7494 0.86671,-2.94822 1.18834,-4.94053 0.31875,-1.97457 0.62354,-3.634113 0.6773,-3.687877 0.0538,-0.05376 0.24778,0.425546 0.43115,1.065128 0.47321,1.650489 0.39791,11.636359 -0.12767,16.931779 -0.52482,5.28785 -0.65717,5.96207 -1.20468,6.13706 -0.23974,0.0766 -0.75169,0.5361 -1.13766,1.02106 -0.67131,0.84349 -8.25511,13.3386 -9.13063,15.04368 -0.69078,1.3453 -2.49293,2.89264 -5.36612,4.6074 -3.91582,2.33701 -4.49875,2.48725 -10.72663,2.7647 -10.612129,0.47276 -15.927235,0.50619 -17.669524,0.11115 z m -5.346533,-9.25099 c 0.376647,-0.44761 0.831228,-1.30254 1.010184,-1.89984 0.367869,-1.22784 0.748808,-1.45789 2.958711,-1.78681 1.302142,-0.1938 1.595631,-0.15844 1.951834,0.23516 0.230584,0.25479 1.164582,0.80758 2.075548,1.22841 l 1.656305,0.76515 6.681737,-0.0143 c 4.279638,-0.009 7.210198,-0.13296 8.151718,-0.34441 1.80166,-0.40465 3.30231,-1.35805 3.75803,-2.38758 l 0.72673,-0.64987 1.90845,0.35646 c 1.26656,0.23657 2.73279,0.48427 3.27024,0.49007 0.86162,0.009 1.09074,0.16859 1.93726,1.34688 1.30309,1.81381 1.76774,1.75652 2.70962,-0.33409 0.93909,-2.08439 1.16582,-4.20158 0.55052,-5.14064 -0.57402,-0.87607 -3.04397,-2.10722 -5.67587,-2.82917 -2.69454,-0.73912 -8.50961,-0.96122 -13.327655,-0.50902 -1.910977,0.17935 -4.436673,0.35961 -5.612659,0.40057 -1.175988,0.041 -4.150712,0.39005 -6.610501,0.77575 -3.745015,0.58723 -4.885454,0.88128 -7.012569,1.80815 -3.494932,1.52287 -4.038862,2.0384 -4.699463,4.454 -0.29577,1.08154 -0.467807,2.18683 -0.38231,2.45621 0.16782,0.52875 2.469634,2.37131 2.978999,2.38463 0.17068,0.004 0.618493,-0.35812 0.995141,-0.80574 z"
         style="fill:#ffe4cc;fill-opacity:1;stroke:#000000;stroke-width:0.267269;stroke-opacity:1" />
      <path
         id="path1339"
         d="m 69.238239,108.32342 c -4.578932,-0.76258 -6.600878,-3.85529 -7.319288,-11.195365 -0.228025,-2.329767 -0.22476,-3.34732 0.01349,-4.204642 0.294339,-1.059156 0.402932,-1.156202 1.708486,-1.526857 2.823446,-0.801587 6.1682,-1.084046 12.485854,-1.054404 8.849791,0.04152 11.471362,0.705289 12.720349,3.220733 1.095695,2.206712 0.387641,8.737095 -1.312217,12.102595 -0.760417,1.50552 -2.215054,2.26884 -5.07982,2.66561 -2.442101,0.33823 -11.170279,0.33316 -13.216852,-0.008 z m 8.358524,-7.32682 c 1.175985,-0.21401 3.574015,-0.51741 5.328951,-0.67421 1.754939,-0.1568 3.288723,-0.345616 3.40841,-0.419586 0.43638,-0.269698 -0.319796,-1.086236 -2.378921,-2.568818 -4.126026,-2.970763 -5.947291,-3.40731 -9.375865,-2.247342 -2.754942,0.932064 -4.128199,1.769274 -4.665483,2.844326 -0.458269,0.916959 -0.455874,0.942073 0.133636,1.401937 1.146281,0.894193 3.763844,2.071413 4.585179,2.062133 0.454266,-0.005 1.788107,-0.18442 2.964093,-0.39844 z"
         style="fill:#ffe4cc;fill-opacity:1;stroke:#000000;stroke-width:0.267269;stroke-opacity:1" />
      <path
         sodipodi:nodetypes="ssssssssssssssssssss"
         id="path1341"
         d="m 112.6247,109.15455 c -5.58079,-0.53616 -8.05218,-1.23047 -9.25466,-2.60002 -1.84159,-2.09746 -3.15359,-6.13008 -3.379492,-10.387396 -0.134242,-2.529928 -0.106601,-2.732247 0.443312,-3.244567 1.10561,-1.030034 2.74146,-1.27543 8.2998,-1.245063 7.13688,0.03899 13.10041,0.879432 15.27453,2.152647 1.75832,1.029713 1.9658,1.617139 1.95129,5.524603 -0.0243,6.537186 -0.45721,7.781516 -3.16348,9.092296 -1.40177,0.67895 -1.91073,0.77139 -4.67722,0.84947 -1.70735,0.0482 -4.17969,-0.0157 -5.49408,-0.14197 z m 8.15795,-8.81926 c 0.13498,0 0.24541,-0.23491 0.24541,-0.522026 0,-0.616675 -3.19885,-3.460065 -4.87902,-4.336862 -0.87059,-0.454316 -1.60347,-0.594508 -3.1501,-0.602581 -1.86055,-0.0097 -2.21218,0.08453 -4.57194,1.225378 -1.406,0.679744 -2.81422,1.512671 -3.12937,1.850948 -0.66429,0.713021 -0.44472,1.458681 -0.16892,2.022444 0.27681,0.565849 14.26292,1.552349 15.05258,0.451339 0.11759,-0.16395 0.46638,-0.0886 0.60136,-0.0886 z"
         style="fill:#ffe4cc;fill-opacity:1;stroke:#000000;stroke-width:0.267269;stroke-opacity:1" />
      <path
         id="path1367"
         d="m 111.18353,110.51111 c -5.4492,-0.25062 -7.42023,-0.87611 -9.37928,-2.97641 -1.18943,-1.2752 -1.78711,-2.39962 -2.934625,-5.52096 -2.123681,-5.776582 -3.217778,-7.210761 -4.850411,-6.35808 -1.566783,0.81829 -2.230797,1.889302 -3.567366,5.75393 -0.715936,2.07009 -1.47379,4.09568 -1.684123,4.50132 -0.702112,1.35407 -2.203432,2.65268 -3.418758,2.95716 -3.811363,0.95487 -14.527416,1.06474 -17.730367,0.18179 -1.978858,-0.54551 -4.209296,-1.78811 -4.783994,-2.66521 -0.237202,-0.36201 -1.100932,-2.73591 -1.919402,-5.27533 -0.818472,-2.539415 -1.981377,-5.626415 -2.584235,-6.859995 -1.0232,-2.093687 -1.070515,-2.289241 -0.711335,-2.939965 1.022715,-1.852843 4.286483,-2.309119 16.279801,-2.275925 5.143926,0.01423 9.635845,0.147982 10.557145,0.314333 0.881989,0.15925 3.287416,0.605219 5.34539,0.991039 2.057977,0.385821 4.824217,0.725456 6.1472,0.754748 2.963505,0.06561 9.46486,-0.502436 12.16076,-1.062527 3.12481,-0.6492 7.53616,-0.340574 14.03165,0.981681 7.60368,1.547842 8.74894,1.925833 10.33771,3.411937 1.09918,1.028152 1.30193,1.364663 1.23498,2.049732 -0.0975,0.998125 -0.53274,1.019212 -2.56412,0.124254 -1.81862,-0.801225 -2.25038,-0.564616 -2.54056,1.392232 -1.21234,8.175476 -1.68558,9.714456 -3.43556,11.172566 -1.93948,1.616 -3.94853,1.80953 -13.9905,1.34768 z m 11.70421,-1.52819 c 1.74807,-0.76818 2.70944,-1.75591 3.12572,-3.2114 0.45913,-1.60535 0.67212,-8.865127 0.29371,-10.011689 -1.01894,-3.087444 -6.66755,-4.544581 -17.79633,-4.590814 -5.73539,-0.02384 -7.04286,0.177596 -8.32794,1.282975 -0.948431,0.815803 -1.115832,2.889276 -0.499023,6.180974 0.914003,4.877734 2.648563,8.431314 4.557653,9.337234 2.44704,1.16119 9.71923,2.07195 14.55918,1.82337 1.93277,-0.0993 2.9087,-0.29284 4.08703,-0.81065 z m -40.97022,-0.0695 c 3.404338,-0.3551 5.221411,-1.2326 6.073782,-2.93313 0.976585,-1.94835 1.72366,-5.26407 1.871681,-8.307041 0.118708,-2.440366 0.0642,-2.993877 -0.397684,-4.038034 -0.6301,-1.424447 -1.959494,-2.520799 -3.687062,-3.040721 -4.446984,-1.338344 -19.294617,-1.000768 -22.937964,0.52152 -1.448157,0.605079 -1.595271,1.132774 -1.419511,5.091825 0.236323,5.323351 1.351111,8.799131 3.456533,10.777071 0.882544,0.82911 2.890353,1.65083 4.66989,1.91122 2.191507,0.32068 9.365652,0.3307 12.370335,0.0173 z"
         style="fill:#1d0300;fill-opacity:1;stroke:#000000;stroke-width:0.267269;stroke-opacity:1" />
      <path
         id="path1373"
         d="M 75.812952,98.964443 C 74.968254,97.59428 74.8923,96.863972 75.493285,95.890842 c 0.496028,-0.803177 0.64247,-0.868328 1.943542,-0.864684 0.773901,0.0021 1.700218,0.152505 2.05848,0.334086 0.762635,0.386533 1.201983,1.765544 0.964983,3.028863 -0.187293,0.99836 -1.104072,1.443961 -2.970803,1.443961 -0.999289,0 -1.20755,-0.1079 -1.676535,-0.868625 z"
         style="fill:#541f0a;fill-opacity:1;stroke:#000000;stroke-width:0.267269;stroke-opacity:1" />
      <path
         sodipodi:nodetypes="sssssss"
         id="path1375"
         d="m 109.98952,99.442646 c -0.50335,-0.606499 -0.63676,-2.345457 -0.22235,-2.89832 0.71703,-0.956596 4.05167,-1.16954 4.76953,-0.304572 0.40254,0.485021 0.40037,1.79524 -0.005,2.772873 -0.33515,0.809143 -0.38356,1.038083 -2.29622,1.038083 -1.37469,0 -2.0167,-0.33132 -2.24637,-0.608064 z"
         style="fill:#541f0a;fill-opacity:1;stroke:#000000;stroke-width:0.267269;stroke-opacity:1" />
      <path
         id="path1379"
         d="m 76.49902,136.04335 c -1.132692,-1.03543 -1.153745,-1.11441 -0.73741,-2.76675 0.568899,-2.25782 1.01705,-2.71034 4.084383,-4.12416 3.054342,-1.40783 8.885185,-2.38943 18.402782,-3.098 7.275315,-0.54165 11.917485,-0.29376 15.249015,0.81427 3.46063,1.15096 4.53959,1.99888 4.53959,3.56747 0,1.15654 -1.2516,4.7303 -1.65663,4.7303 -0.0944,0 -0.52685,-0.57481 -0.96105,-1.27736 -0.72165,-1.16764 -1.02463,-1.31501 -3.52711,-1.7155 -1.50571,-0.24097 -3.5881,-0.5915 -4.62753,-0.77897 -3.66875,-0.66166 -8.918241,-0.42046 -21.286657,0.97809 -2.768526,0.31305 -5.269114,0.65952 -5.556867,0.76995 -0.287753,0.11041 -0.707906,0.76046 -0.933672,1.44455 -0.225769,0.68408 -0.728274,1.53138 -1.116677,1.88288 -0.668467,0.60495 -0.768469,0.58216 -1.872167,-0.42677 z"
         style="fill:#6c2613;fill-opacity:1;stroke:#000000;stroke-width:0.377976;stroke-opacity:1" />
      <path
         id="path1381"
         d="m 90.434629,161.11521 c -4.141052,-0.89986 -8.299984,-4.22364 -14.733212,-11.77462 -5.108527,-5.99611 -6.930443,-8.94878 -8.566838,-13.88374 -0.691851,-2.08647 -1.257911,-3.84766 -1.257911,-3.91376 0,-0.26818 3.503851,0.95749 4.381918,1.53283 0.518957,0.34003 2.403539,2.60788 4.18796,5.03968 4.535922,6.1815 5.911951,7.53324 8.43905,8.29008 2.541277,0.76111 8.975055,0.84692 18.709824,0.24956 7.41161,-0.45481 7.95156,-0.61175 12.76927,-3.71147 2.75302,-1.77129 3.09158,-2.20726 7.65408,-9.85615 4.27767,-7.17141 6.20956,-10.15677 6.43,-9.93634 0.0732,0.0732 -0.19488,1.63427 -0.59581,3.46895 -0.51751,2.36813 -1.3214,4.44787 -2.77124,7.16944 -1.12325,2.10851 -2.67975,5.44951 -3.45888,7.42443 -1.92346,4.87556 -2.87234,6.64918 -4.78923,8.95191 -3.68515,4.42689 -9.86545,8.18667 -16.56111,10.07495 -4.139677,1.16745 -7.22633,1.44175 -9.837871,0.87425 z"
         style="fill:#6c2613;fill-opacity:1;stroke:#000000;stroke-width:0.377976;stroke-opacity:1" />
      <path
         id="path1385"
         d="m 120.84078,87.162746 c -3.33553,-3.022787 -5.34578,-3.651112 -9.72971,-3.041126 -3.22954,0.449366 -6.62009,0.09677 -7.70175,-0.80092 -1.51182,-1.254702 2.4843,-2.184233 9.44595,-2.197206 4.81097,-0.009 5.65383,0.317725 9.25248,3.586253 2.9649,2.69291 3.46409,3.528769 2.51983,4.219231 -0.37789,0.276315 -0.82125,0.502393 -0.98527,0.502393 -0.16401,0 -1.4247,-1.020881 -2.80153,-2.268625 z"
         style="fill:#6c2613;fill-opacity:1;stroke:#000000;stroke-width:0.377976;stroke-opacity:1" />
      <path
         id="path1387"
         d="m 65.49869,86.824691 c 0,-0.48206 2.432359,-2.555182 3.870534,-3.298891 4.114408,-2.127644 12.325149,-2.083956 15.689736,0.08348 1.093954,0.704715 1.072594,1.123389 -0.09639,1.889337 -0.707673,0.463685 -1.074544,0.514397 -1.452443,0.200768 -0.278088,-0.230793 -2.054368,-0.579853 -3.947293,-0.775692 -4.125126,-0.426781 -9.343085,0.22194 -11.625738,1.445369 -1.579777,0.846708 -2.438408,1.007149 -2.438408,0.455628 z"
         style="fill:#6c2613;fill-opacity:1;stroke:#000000;stroke-width:0.377976;stroke-opacity:1" />
      <path
         id="path1389"
         d="m 110.54589,110.25911 c -4.74054,-0.29356 -6.46166,-0.85454 -8.33829,-2.7178 -1.32294,-1.31351 -1.78764,-2.1543 -3.217026,-5.8206 -1.656382,-4.248535 -2.510867,-5.782986 -3.507296,-6.298259 -0.525557,-0.271775 -0.645623,-0.270574 -1.390496,0.01389 -1.628857,0.622067 -2.379459,1.832462 -4.086101,6.589129 -1.115531,3.10914 -1.642284,4.37108 -1.770882,4.24248 -0.05197,-0.052 0.06296,-0.46797 0.255407,-0.92444 0.932349,-2.21149 1.550141,-5.664633 1.547633,-8.650467 -0.0016,-1.904113 -0.06057,-2.321401 -0.443823,-3.140794 -1.45261,-3.105674 -4.226555,-3.916119 -13.444955,-3.928129 -8.72268,-0.01135 -13.588826,0.730591 -14.565249,2.220804 -0.447233,0.682562 -0.550934,2.684775 -0.287986,5.560258 0.518874,5.674188 1.863656,8.870288 4.362585,10.368418 0.563488,0.33782 0.912622,0.61421 0.775856,0.61421 -0.382542,0 -2.333183,-1.08652 -2.908694,-1.62016 -0.633693,-0.5876 -0.748144,-0.86099 -2.521892,-6.02404 -0.787461,-2.292157 -1.847821,-5.10304 -2.356353,-6.24641 -0.508534,-1.143373 -0.924607,-2.303926 -0.924607,-2.57901 0,-0.633373 1.044956,-1.584526 2.02914,-1.846988 2.291815,-0.611176 3.642405,-0.67664 13.84586,-0.671128 l 10.29985,0.0056 4.15774,0.782293 c 5.631299,1.059548 7.60554,1.234136 11.339284,1.002771 3.646975,-0.225991 6.043585,-0.484775 8.315475,-0.897903 2.18472,-0.397277 6.47434,-0.380944 9.26042,0.03526 2.96503,0.442937 10.18523,1.914451 11.73104,2.390849 1.88525,0.581007 2.69223,1.030055 3.81323,2.1219 0.73317,0.714108 0.99219,1.105295 0.99219,1.498492 0,0.292656 -0.11263,0.575326 -0.2503,0.62815 -0.13766,0.05283 -0.96391,-0.167074 -1.83612,-0.488667 -1.67637,-0.618098 -2.30482,-0.620297 -2.63187,-0.0092 -0.10641,0.198837 -0.41056,1.707374 -0.67589,3.352307 -0.62199,3.856214 -1.1151,6.099994 -1.56317,7.112944 -0.79029,1.78657 -2.32688,2.92951 -4.47149,3.32596 -1.25065,0.2312 -7.78804,0.23025 -11.53322,-0.002 z m 9.35491,-0.35677 c 3.0018,-0.34289 5.06676,-1.47495 5.92797,-3.24987 0.3677,-0.7578 0.53531,-1.5163 0.68146,-3.08385 0.25143,-2.69664 0.24693,-6.794889 -0.009,-7.714639 -0.577,-2.077858 -3.19701,-3.475456 -8.01837,-4.277249 -3.35609,-0.55812 -13.54815,-0.796923 -15.88754,-0.37225 -1.41138,0.256209 -2.633486,0.955759 -3.038724,1.739402 -1.383935,2.676237 0.934624,12.005156 3.592624,14.455216 1.00419,0.92563 2.25635,1.35346 5.61705,1.9192 4.11588,0.69288 8.27249,0.91091 11.134,0.58404 z"
         style="fill:#000000;fill-opacity:0;stroke:#000000;stroke-width:0.188988;stroke-opacity:1" />
      <path
         sodipodi:nodetypes="ssssssss"
         id="path1407"
         d="m 89.898025,135.08486 c -1.746295,-0.22563 -4.74018,-1.24379 -5.35894,-1.98935 -0.23436,-0.28238 2.473397,-0.46629 8.809435,-0.91008 2.154808,-0.15093 4.110836,-0.31905 4.346725,-0.3736 0.23589,-0.0546 1.313246,-0.17879 2.394125,-0.27607 1.98933,-0.17906 6.55397,0.0488 7.07891,0.37392 0.63029,0.39033 -1.73306,2.20841 -3.2465,2.63472 -1.48081,0.41713 -11.877241,0.8178 -14.023755,0.54046 z"
         style="fill:#ffffff;fill-opacity:1;stroke:#000000;stroke-width:0.188988;stroke-opacity:1" />
      <path
         transform="scale(0.26458333)"
         id="path1699"
         d="m 279.56996,381.45455 c -2.98909,-0.76502 -7.73055,-3.20756 -13.43218,-6.91949 l -1.68916,-1.0997 0.0742,-0.54107 c 0.17048,-1.24378 0.8641,-2.70183 1.91553,-4.0266 1.85189,-2.33332 7.9457,-5.44848 16.0813,-8.22077 1.34451,-0.45816 2.49509,-0.83301 2.55683,-0.83301 0.0617,0 -0.19767,0.38354 -0.57647,0.85231 -1.5577,1.92768 -2.3478,3.80955 -2.42138,5.76729 -0.0448,1.19145 -0.0222,1.32631 0.45839,2.7385 1.14721,3.37096 2.72234,6.33931 4.17594,7.86957 1.56487,1.6474 2.64354,1.99478 6.24156,2.01007 5.94694,0.0253 10.84866,-1.71862 12.18314,-4.33441 0.46871,-0.91875 0.66256,-2.79385 0.59433,-5.74882 -0.0733,-3.17331 -0.40304,-5.16833 -1.1459,-6.93262 -0.11414,-0.2711 -0.18306,-0.51738 -0.15314,-0.5473 0.0767,-0.0767 2.63635,1.3489 4.39954,2.45033 2.44139,1.52508 4.96387,3.3037 9.69152,6.83358 4.55709,3.40255 6.8953,5.43021 6.60112,5.72439 -0.0734,0.0734 -1.00626,0.21076 -2.07303,0.30525 -1.06677,0.0945 -2.45097,0.22832 -3.076,0.29741 -0.62503,0.0691 -2.50013,0.18711 -4.16688,0.26227 -7.98425,0.36004 -7.98493,0.36013 -22.10049,2.77723 -5.90198,1.01063 -8.2072,1.28469 -11.23454,1.33562 -1.45841,0.0245 -2.7653,0.0155 -2.90419,-0.02 z"
         style="fill:#ffffff;stroke:#000000;stroke-width:0.126269" />
      <path
         transform="scale(0.26458333)"
         id="path1701"
         d="m 432.33701,380.512 c -5.01757,-0.21493 -17.48296,-1.28537 -22.8547,-1.9626 -3.71565,-0.46844 -9.72914,-1.59084 -11.5443,-2.1547 -0.1093,-0.034 -0.0393,0.0853 0.15555,0.26503 0.3936,0.36304 0.26606,0.42551 -0.28594,0.14006 -0.48931,-0.25303 -0.82402,-1.13242 -0.71997,-1.89156 0.18106,-1.32096 1.13405,-3.01352 2.42014,-4.29832 1.01834,-1.0173 2.35457,-1.88152 4.90926,-3.1751 2.66222,-1.34803 10.29714,-4.96925 10.47708,-4.96925 0.0734,0 -0.0971,0.24149 -0.37892,0.53664 -1.05562,1.10561 -1.71221,2.26103 -2.17831,3.83326 -0.31575,1.06502 -0.32932,1.70074 -0.0774,3.62287 0.52521,4.00652 1.79997,6.68964 3.6153,7.60954 0.32404,0.16421 0.95371,0.35679 1.39927,0.42797 0.44556,0.0712 1.14752,0.24644 1.55991,0.38947 2.38467,0.82707 6.94921,0.92754 10.8288,0.23835 2.61514,-0.46456 2.57794,-0.44533 3.3297,-1.72134 1.94362,-3.29899 2.93412,-6.13329 2.94041,-8.41391 0.003,-0.95134 -0.41044,-2.96409 -0.96291,-4.69195 -0.3289,-1.02864 -1.05038,-2.30273 -1.56959,-2.7718 -0.64283,-0.58075 -1.27996,-0.74691 -4.58062,-1.19457 -1.51777,-0.20585 -2.79624,-0.41196 -2.84106,-0.45803 -0.10797,-0.11099 4.29718,0.0522 5.66377,0.20979 2.41247,0.27824 4.42681,0.86963 6.50285,1.90917 2.2692,1.13626 3.50963,2.01884 7.57451,5.38939 1.45931,1.21004 3.64766,2.93951 4.863,3.84327 3.4965,2.6001 5.55584,4.83536 5.55584,6.03046 0,0.54687 -0.54123,1.06511 -1.48652,1.42337 -1.03268,0.39139 -1.88104,0.5189 -5.11515,0.76882 -1.37386,0.10616 -4.03543,0.36477 -5.91459,0.57468 -2.94419,0.32887 -7.699,0.65994 -8.69695,0.60556 -0.17362,-0.009 -1.33845,-0.061 -2.58851,-0.11457 z"
         style="fill:#ffffff;stroke:#000000;stroke-width:0.126269" />
    </g>
  </g>
</svg>
